<mxfile host="app.diagrams.net" modified="2023-03-29T11:37:39.855Z" agent="Mozilla/5.0 (Windows NT 10.0; Win64; x64) AppleWebKit/537.36 (KHTML, like Gecko) Chrome/111.0.0.0 Safari/537.36 Edg/111.0.1661.54" etag="rFJyD9ktCG6DNP1JG9Qa" version="21.1.1" type="github">
  <diagram name="第 1 页" id="fcZWKfpshmTIGXZ0ez4F">
    <mxGraphModel dx="1107" dy="606" grid="1" gridSize="10" guides="1" tooltips="1" connect="1" arrows="1" fold="1" page="1" pageScale="1" pageWidth="827" pageHeight="1169" math="0" shadow="0">
      <root>
        <mxCell id="0" />
        <mxCell id="1" parent="0" />
        <mxCell id="jsRPyK08WEfNSU1hI-rS-1" value="直播记录" style="rounded=0;whiteSpace=wrap;html=1;" vertex="1" parent="1">
          <mxGeometry x="310" y="220" width="120" height="60" as="geometry" />
        </mxCell>
        <mxCell id="jsRPyK08WEfNSU1hI-rS-3" value="直播数据" style="rounded=0;whiteSpace=wrap;html=1;" vertex="1" parent="1">
          <mxGeometry x="630" y="270" width="120" height="60" as="geometry" />
        </mxCell>
        <mxCell id="jsRPyK08WEfNSU1hI-rS-4" value="弹幕数据" style="rounded=0;whiteSpace=wrap;html=1;" vertex="1" parent="1">
          <mxGeometry x="630" y="180" width="120" height="60" as="geometry" />
        </mxCell>
        <mxCell id="jsRPyK08WEfNSU1hI-rS-5" value="观众动作" style="rounded=0;whiteSpace=wrap;html=1;" vertex="1" parent="1">
          <mxGeometry x="630" y="90" width="120" height="60" as="geometry" />
        </mxCell>
        <mxCell id="jsRPyK08WEfNSU1hI-rS-6" value="礼物数据" style="rounded=0;whiteSpace=wrap;html=1;" vertex="1" parent="1">
          <mxGeometry x="630" y="360" width="120" height="60" as="geometry" />
        </mxCell>
        <mxCell id="jsRPyK08WEfNSU1hI-rS-8" value="包括" style="rhombus;whiteSpace=wrap;html=1;" vertex="1" parent="1">
          <mxGeometry x="500" y="100" width="50" height="40" as="geometry" />
        </mxCell>
        <mxCell id="jsRPyK08WEfNSU1hI-rS-36" value="" style="edgeStyle=orthogonalEdgeStyle;rounded=0;orthogonalLoop=1;jettySize=auto;html=1;endArrow=none;endFill=0;" edge="1" parent="1" source="jsRPyK08WEfNSU1hI-rS-11" target="jsRPyK08WEfNSU1hI-rS-35">
          <mxGeometry relative="1" as="geometry" />
        </mxCell>
        <mxCell id="jsRPyK08WEfNSU1hI-rS-38" value="" style="edgeStyle=orthogonalEdgeStyle;rounded=0;orthogonalLoop=1;jettySize=auto;html=1;endArrow=none;endFill=0;" edge="1" parent="1" source="jsRPyK08WEfNSU1hI-rS-11" target="jsRPyK08WEfNSU1hI-rS-34">
          <mxGeometry relative="1" as="geometry" />
        </mxCell>
        <mxCell id="jsRPyK08WEfNSU1hI-rS-11" value="主播基本信息" style="rounded=0;whiteSpace=wrap;html=1;" vertex="1" parent="1">
          <mxGeometry x="135" y="110" width="120" height="60" as="geometry" />
        </mxCell>
        <mxCell id="jsRPyK08WEfNSU1hI-rS-12" value="主播基本数据" style="rounded=0;whiteSpace=wrap;html=1;" vertex="1" parent="1">
          <mxGeometry x="135" y="310" width="120" height="60" as="geometry" />
        </mxCell>
        <mxCell id="jsRPyK08WEfNSU1hI-rS-22" value="包括" style="rhombus;whiteSpace=wrap;html=1;" vertex="1" parent="1">
          <mxGeometry x="500" y="190" width="50" height="40" as="geometry" />
        </mxCell>
        <mxCell id="jsRPyK08WEfNSU1hI-rS-24" value="包括" style="rhombus;whiteSpace=wrap;html=1;" vertex="1" parent="1">
          <mxGeometry x="500" y="280" width="50" height="40" as="geometry" />
        </mxCell>
        <mxCell id="jsRPyK08WEfNSU1hI-rS-25" value="包括" style="rhombus;whiteSpace=wrap;html=1;" vertex="1" parent="1">
          <mxGeometry x="500" y="370" width="50" height="40" as="geometry" />
        </mxCell>
        <mxCell id="jsRPyK08WEfNSU1hI-rS-26" value="" style="endArrow=none;html=1;rounded=0;entryX=0;entryY=0.5;entryDx=0;entryDy=0;exitX=1;exitY=1;exitDx=0;exitDy=0;" edge="1" parent="1" source="jsRPyK08WEfNSU1hI-rS-1" target="jsRPyK08WEfNSU1hI-rS-25">
          <mxGeometry width="50" height="50" relative="1" as="geometry">
            <mxPoint x="380" y="240" as="sourcePoint" />
            <mxPoint x="430" y="190" as="targetPoint" />
          </mxGeometry>
        </mxCell>
        <mxCell id="jsRPyK08WEfNSU1hI-rS-27" value="" style="endArrow=none;html=1;rounded=0;entryX=0;entryY=0.5;entryDx=0;entryDy=0;exitX=1;exitY=1;exitDx=0;exitDy=0;" edge="1" parent="1" source="jsRPyK08WEfNSU1hI-rS-1" target="jsRPyK08WEfNSU1hI-rS-24">
          <mxGeometry width="50" height="50" relative="1" as="geometry">
            <mxPoint x="440" y="290" as="sourcePoint" />
            <mxPoint x="510" y="400" as="targetPoint" />
          </mxGeometry>
        </mxCell>
        <mxCell id="jsRPyK08WEfNSU1hI-rS-28" value="" style="endArrow=none;html=1;rounded=0;entryX=0;entryY=0.5;entryDx=0;entryDy=0;exitX=1;exitY=0;exitDx=0;exitDy=0;" edge="1" parent="1" source="jsRPyK08WEfNSU1hI-rS-1" target="jsRPyK08WEfNSU1hI-rS-22">
          <mxGeometry width="50" height="50" relative="1" as="geometry">
            <mxPoint x="450" y="300" as="sourcePoint" />
            <mxPoint x="520" y="410" as="targetPoint" />
          </mxGeometry>
        </mxCell>
        <mxCell id="jsRPyK08WEfNSU1hI-rS-29" value="" style="endArrow=none;html=1;rounded=0;entryX=0;entryY=0.5;entryDx=0;entryDy=0;exitX=1;exitY=0;exitDx=0;exitDy=0;" edge="1" parent="1" source="jsRPyK08WEfNSU1hI-rS-1" target="jsRPyK08WEfNSU1hI-rS-8">
          <mxGeometry width="50" height="50" relative="1" as="geometry">
            <mxPoint x="460" y="310" as="sourcePoint" />
            <mxPoint x="530" y="420" as="targetPoint" />
          </mxGeometry>
        </mxCell>
        <mxCell id="jsRPyK08WEfNSU1hI-rS-30" value="" style="endArrow=none;html=1;rounded=0;entryX=0;entryY=0.5;entryDx=0;entryDy=0;exitX=1;exitY=0.5;exitDx=0;exitDy=0;" edge="1" parent="1" source="jsRPyK08WEfNSU1hI-rS-25" target="jsRPyK08WEfNSU1hI-rS-6">
          <mxGeometry width="50" height="50" relative="1" as="geometry">
            <mxPoint x="470" y="320" as="sourcePoint" />
            <mxPoint x="540" y="430" as="targetPoint" />
          </mxGeometry>
        </mxCell>
        <mxCell id="jsRPyK08WEfNSU1hI-rS-31" value="" style="endArrow=none;html=1;rounded=0;entryX=0;entryY=0.5;entryDx=0;entryDy=0;exitX=1;exitY=0.5;exitDx=0;exitDy=0;" edge="1" parent="1" source="jsRPyK08WEfNSU1hI-rS-24" target="jsRPyK08WEfNSU1hI-rS-3">
          <mxGeometry width="50" height="50" relative="1" as="geometry">
            <mxPoint x="480" y="330" as="sourcePoint" />
            <mxPoint x="550" y="440" as="targetPoint" />
          </mxGeometry>
        </mxCell>
        <mxCell id="jsRPyK08WEfNSU1hI-rS-32" value="" style="endArrow=none;html=1;rounded=0;entryX=0;entryY=0.5;entryDx=0;entryDy=0;exitX=1;exitY=0.5;exitDx=0;exitDy=0;" edge="1" parent="1" source="jsRPyK08WEfNSU1hI-rS-22" target="jsRPyK08WEfNSU1hI-rS-4">
          <mxGeometry width="50" height="50" relative="1" as="geometry">
            <mxPoint x="490" y="340" as="sourcePoint" />
            <mxPoint x="560" y="450" as="targetPoint" />
          </mxGeometry>
        </mxCell>
        <mxCell id="jsRPyK08WEfNSU1hI-rS-33" value="" style="endArrow=none;html=1;rounded=0;entryX=0;entryY=0.5;entryDx=0;entryDy=0;exitX=1;exitY=0.5;exitDx=0;exitDy=0;" edge="1" parent="1" source="jsRPyK08WEfNSU1hI-rS-8" target="jsRPyK08WEfNSU1hI-rS-5">
          <mxGeometry width="50" height="50" relative="1" as="geometry">
            <mxPoint x="500" y="350" as="sourcePoint" />
            <mxPoint x="570" y="460" as="targetPoint" />
          </mxGeometry>
        </mxCell>
        <mxCell id="jsRPyK08WEfNSU1hI-rS-39" value="" style="edgeStyle=orthogonalEdgeStyle;rounded=0;orthogonalLoop=1;jettySize=auto;html=1;endArrow=none;endFill=0;" edge="1" parent="1" source="jsRPyK08WEfNSU1hI-rS-34" target="jsRPyK08WEfNSU1hI-rS-1">
          <mxGeometry relative="1" as="geometry" />
        </mxCell>
        <mxCell id="jsRPyK08WEfNSU1hI-rS-34" value="对应" style="rhombus;whiteSpace=wrap;html=1;" vertex="1" parent="1">
          <mxGeometry x="345" y="120" width="50" height="40" as="geometry" />
        </mxCell>
        <mxCell id="jsRPyK08WEfNSU1hI-rS-37" value="" style="edgeStyle=orthogonalEdgeStyle;rounded=0;orthogonalLoop=1;jettySize=auto;html=1;endArrow=none;endFill=0;" edge="1" parent="1" source="jsRPyK08WEfNSU1hI-rS-35" target="jsRPyK08WEfNSU1hI-rS-12">
          <mxGeometry relative="1" as="geometry" />
        </mxCell>
        <mxCell id="jsRPyK08WEfNSU1hI-rS-35" value="包括" style="rhombus;whiteSpace=wrap;html=1;" vertex="1" parent="1">
          <mxGeometry x="170" y="220" width="50" height="40" as="geometry" />
        </mxCell>
      </root>
    </mxGraphModel>
  </diagram>
</mxfile>
